<svg width="42" height="47" viewBox="0 0 42 47" fill="none" xmlns="http://www.w3.org/2000/svg">
<path d="M39.1658 19.8153L7.25958 0.953972C4.6672 -0.576791 0.696136 0.908656 0.696136 4.69886V42.4133C0.696136 45.8119 4.38439 47.8593 7.25958 46.1563L39.1658 27.305C42.012 25.6247 42.0211 21.4919 39.1658 19.8153ZM29.8731 26.0543L10.8735 37.279C8.94463 38.4255 6.49727 37.0279 6.49727 34.7821V12.3237C6.49727 10.0778 8.94463 8.68391 10.8735 9.82768L29.8731 21.0614C30.307 21.3179 30.6665 21.6831 30.9163 22.1208C31.166 22.5586 31.2974 23.0539 31.2974 23.5579C31.2974 24.0618 31.166 24.5571 30.9163 24.9949C30.6665 25.4327 30.307 25.7978 29.8731 26.0543Z" fill="white" fill-opacity="0.5"/>
<path d="M10.8735 9.8295L29.8731 21.0614C30.307 21.318 30.6665 21.6831 30.9163 22.1209C31.166 22.5586 31.2974 23.0539 31.2974 23.5579C31.2974 24.0619 31.166 24.5571 30.9163 24.9949C30.6665 25.4327 30.307 25.7978 29.8731 26.0543L10.8735 37.279C8.94459 38.4255 6.49724 37.028 6.49724 34.7821V12.3237C6.49724 10.0796 8.94459 8.68574 10.8735 9.8295Z" fill="white"/>
</svg>
